<svg id="Capa_1" data-name="Capa 1" xmlns="http://www.w3.org/2000/svg" xmlns:xlink="http://www.w3.org/1999/xlink" viewBox="0 0 1049 933.43"><defs><style>.cls-1{fill:#dbe3f1;}.cls-2{fill:#eff3f7;}.cls-3{fill:#f3f5f4;}.cls-4{fill:#dce3ee;}.cls-5{fill:#14276d;}.cls-6{fill:#7c8dff;}.cls-7{fill:#1f4b8f;}.cls-8{fill:url(#Degradado_sin_nombre_40);}.cls-9{fill:url(#Degradado_sin_nombre_40-2);}.cls-10{fill:#13438d;}.cls-11{fill:#fed53b;}.cls-12{fill:#4984d0;}.cls-13,.cls-18{font-size:23.16px;font-family:Consolas-Bold, Consolas;font-weight:700;letter-spacing:0.17em;}.cls-13,.cls-14,.cls-19{fill:#fff;}.cls-15{fill:#dfe3f0;}.cls-16{fill:#244b93;}.cls-17{fill:#fffef8;}.cls-18{fill:#15508b;}.cls-19{stroke:#ffae09;stroke-miterlimit:10;stroke-width:9px;}.cls-20{fill:#1b4b94;}</style><linearGradient id="Degradado_sin_nombre_40" x1="730.42" y1="249.05" x2="830.08" y2="249.05" gradientUnits="userSpaceOnUse"><stop offset="0" stop-color="#fff" stop-opacity="0.2"/><stop offset="1" stop-color="#fff" stop-opacity="0.7"/></linearGradient><linearGradient id="Degradado_sin_nombre_40-2" x1="1011.75" y1="323.3" x2="1234.45" y2="323.3" xlink:href="#Degradado_sin_nombre_40"/></defs><title>imagen-sesion</title><path class="cls-1" d="M749.35,975.93c-2.36.5-3.36-1-4.14-2.82C743,968,740.7,962.92,737,958.68c-.32-3.8-.06-7.65-.52-11.42a20.7,20.7,0,0,0-8.6-14.7c-8.51-6.17-18-9.08-28.51-6.9a31.26,31.26,0,0,0-16.91,9.82c-.88,1-1.67,2-3.14,1.92a3.23,3.23,0,0,1-.38-.45c-5.85-9.67-3.41-16.53,7.21-20.3,4.87-1.72,10-2,15.71-2.62-4.62-4.68-9.69-8.14-13.65-12.73-.71-1.91.44-3.41,1.1-5,3-7.43,4.77-15,2.15-23a27.8,27.8,0,0,0-2.48-5.33c-.61-1-1.28-2.07-.09-3.16,5,1.17,8.5,4.75,12.67,8.14-.41-4.66-.86-8.84-1.13-13-.6-9.48-.84-19,1.47-28.31a24.48,24.48,0,0,1,2.95-7.69c1.28.12,1.73,1.19,2.32,2.07,5.8,8.72,13.92,12.31,24.26,11a15.72,15.72,0,0,1,2.06-.13c1.58,6,2.12,12.13,2.95,18.24.25,1.83.1,3.73,1,5.45,1,.29,1.3,1.14,1.46,2.06.95,12.71,2.44,25.3,7.66,37.14,1.15,2.61,2.1,5.32,3,8a8.56,8.56,0,0,1,.44,5.29,2.09,2.09,0,0,1-2.35.82c-.48-.11-1-.23-1.43-.37-6.6-2-9.36-1.32-12,2.79-3.27,5.09-3.08,11.55.52,15.73a42.61,42.61,0,0,0,4.57,4.64c6.68,5.73,9,13.55,10.32,21.74.77,4.57.82,9.24,1.5,13.83C751.31,974,751,975.22,749.35,975.93Z" transform="translate(-429.79 -42.71)"/><path class="cls-2" d="M749.35,975.93c1.1-1.74.12-3.49-.05-5.2-.69-7-1-14-3.27-20.71a26.61,26.61,0,0,0-7.45-11.89c-1.33-1.17-2.46-2.58-3.82-3.72-6.83-5.69-4.84-15.77-.71-20.61,3-3.55,6.82-3.49,10.84-2.28,1.51.46,3,1,4.51,1.43.76-.72.64-1.58.7-2.56a123.86,123.86,0,0,1,2.19-17.49A34.34,34.34,0,0,1,760.81,876a15.24,15.24,0,0,1,8.16-4.66c1.25,0,2.46.45,3.71.42,1.78.58,3.87.4,5.21,2.09,3,8.21-1,15-4.42,21.88-1.26,2.53-2.85,4.91-3.84,8.61,1.86-1.42,3.06-2.32,4.25-3.24a23.57,23.57,0,0,1,6.92-4c5.7-1.85,10.13.06,12.79,5.44,3.37,6.82,2.48,18.26-6,23.41-3.8,2.32-7.64,4.59-11.62,6.53-10.25,5-15.32,13.55-17.66,24.2-1.05,4.82-2,9.68-3.07,14.49C754.33,975.24,753.53,975.77,749.35,975.93Z" transform="translate(-429.79 -42.71)"/><path class="cls-2" d="M777.89,873.86c-1.86.61-3.29-.57-4.86-1.16-3.28-.71-4.89-3.45-6.7-5.79-5.59-7.22-13.11-11.38-21.56-14.19-1.76-.58-3.6-1-4.83-2.61,1.82-6.26,4.48-12.11,9.41-16.53,9.7-8.68,25.29-6.25,33.27,5a31.78,31.78,0,0,1,2.19,3.56c1.63,3.06,4,7.45,3.39,11a10.82,10.82,0,0,1-.94,2.68,37.76,37.76,0,0,1-4.19,6.88,43.09,43.09,0,0,1-3.84,4.15,2,2,0,0,0-.55.74,1.59,1.59,0,0,0,.19,1.23,12.07,12.07,0,0,1,.62,1.11C779.85,870.88,779,873.5,777.89,873.86Z" transform="translate(-429.79 -42.71)"/><path class="cls-1" d="M734.48,955.81a72.13,72.13,0,0,0-8.93-7.13,41.46,41.46,0,0,1-4.11-6.79,13.61,13.61,0,0,0-7.44-6.37c-7.56-2.85-19.3-2.23-25,6.24a4.36,4.36,0,0,1-3.09,2.07,12.83,12.83,0,0,1-5.37-4.71c1.12-4.31,4.7-6.48,8-8.77,14-9.84,34-4.62,43,5.87a21.44,21.44,0,0,1,4.92,16.88C736.21,954.34,735.87,955.43,734.48,955.81Z" transform="translate(-429.79 -42.71)"/><path class="cls-3" d="M685.87,943.83c6.6-12.81,21.64-13.64,31.06-8.56,5.12,2.76,7.8,7.62,8.62,13.41-8.71-4.86-18-4.85-27.56-3.55C693.91,945.68,689.74,945.82,685.87,943.83Z" transform="translate(-429.79 -42.71)"/><path class="cls-4" d="M707.32,820.47a13.91,13.91,0,0,1,19.93,1.72,28.18,28.18,0,0,1,5.34,11.36c-.42,1.53-1.61,1.81-3,1.91-9.22.66-16.34-2.74-21.07-10.82A7.58,7.58,0,0,1,707.32,820.47Z" transform="translate(-429.79 -42.71)"/><path class="cls-4" d="M734.48,955.81c3-15.88-7.37-25.3-22-28.45-11.35-2.45-21.05.87-29.1,9.17-.89.92-1.89,1.73-2.84,2.59l-1.23-1.72A29.76,29.76,0,0,1,700.41,924c12.48-1.87,23.46,1.87,32.22,11.21A20,20,0,0,1,738,948.94c0,3.23,1.17,6.71-1.07,9.74Z" transform="translate(-429.79 -42.71)"/><path class="cls-4" d="M769.08,872.77a18.12,18.12,0,0,0-7.29,4,3.66,3.66,0,0,1-4-1.13,42.3,42.3,0,0,0-17.42-10.09,4.29,4.29,0,0,1-2.86-2.35c0-.87-.09-1.74-.13-2.61a45.24,45.24,0,0,1,1.88-8.13,73.12,73.12,0,0,1,22.2,12.67A55,55,0,0,1,769.08,872.77Z" transform="translate(-429.79 -42.71)"/><path class="cls-3" d="M679.32,892.22a36.85,36.85,0,0,1-6.11-7.91c-4.49-7.53-2.94-13.2,4.74-17.74,1.8-.54,3,.27,4,1.73,3.75,5.49,4,16.6.42,22.12C681.64,891.49,681,892.67,679.32,892.22Z" transform="translate(-429.79 -42.71)"/><path class="cls-3" d="M688.84,864.83c3,4.73,5.35,9.65,5.32,15.43a37.51,37.51,0,0,1-6,21,18,18,0,0,1-4.84-4.88,8.28,8.28,0,0,1,1.07-3.94c3.64-6.13,3.72-12.49,1.24-19-.74-1.94-1.52-3.85-2.37-5.74-.57-1.28-.73-2.49.81-3.26A7.52,7.52,0,0,1,688.84,864.83Z" transform="translate(-429.79 -42.71)"/><path class="cls-4" d="M769.08,872.77a5.71,5.71,0,0,1-4.28-2.24,56.63,56.63,0,0,0-23.14-15.22c-1.47-.5-2.45-1.19-2.4-2.85l.68-2.35a46.23,46.23,0,0,1,20.13,8.63,51,51,0,0,1,10,10.43c1,1.32,1.93,2.72,3.7,3.13,0,.08-.07.19-.14.22a3.65,3.65,0,0,1-.56.18Z" transform="translate(-429.79 -42.71)"/><path class="cls-1" d="M684.07,864.44c-.57,1.54.51,2.64,1.08,3.84,2.9,6.1,4.78,12.34,3,19.17a19.88,19.88,0,0,1-4.84,9,15.83,15.83,0,0,1-4-4.2c5.08-6.37,5.54-16.92,1-23.61a4.2,4.2,0,0,0-2.42-2A15.18,15.18,0,0,1,684.07,864.44Z" transform="translate(-429.79 -42.71)"/><path class="cls-1" d="M707.32,820.47c2,1.69,2.87,4.18,4.43,6.19,5.45,7,12.68,8.28,20.84,6.89.28,1.12.56,2.23.85,3.35a1.82,1.82,0,0,1-1.71,1.71c-11.13,1.53-21.57-3.47-26.59-13.25a6,6,0,0,1-.34-1.43Z" transform="translate(-429.79 -42.71)"/><path class="cls-3" d="M737.51,863.2c9.56,1.9,17.08,7.45,24.28,13.57-7.82,9.05-9,20.21-10.13,31.43-.17,1.73.49,4.13-2.26,4.75-1.26-5.61-3.51-10.89-5.66-16.18-3.38-8.35-4.75-17.07-5.63-25.92C737.86,868.31,737.23,865.78,737.51,863.2Z" transform="translate(-429.79 -42.71)"/><path class="cls-3" d="M703,899.93c-3.43,0-5.84-2.07-5.87-5,0-3.17,2.39-5.41,5.82-5.38,3,0,6,3.09,6,6.27C708.88,898.27,706.44,900,703,899.93Z" transform="translate(-429.79 -42.71)"/><path class="cls-3" d="M719,866.7a5,5,0,0,1,5.32,5.36c0,2.74-2.07,4.65-5,4.63a5.42,5.42,0,0,1-5.56-5.31C713.73,868.6,715.84,866.72,719,866.7Z" transform="translate(-429.79 -42.71)"/><path class="cls-3" d="M723.19,852.4c-2.61,0-4.16-1.8-4.11-4.73a4.5,4.5,0,0,1,4.34-4.69c2.23,0,3.87,1.9,3.91,4.65S725.63,852.41,723.19,852.4Z" transform="translate(-429.79 -42.71)"/><path class="cls-3" d="M724.39,903.93c0-3.24,1.28-4.66,4-4.59a4.23,4.23,0,0,1,4.21,4.39c0,2.53-2.42,5.15-4.77,5.08S724.36,907,724.39,903.93Z" transform="translate(-429.79 -42.71)"/><path class="cls-3" d="M754.82,928.09a4.81,4.81,0,0,1,4.75-5c2.26,0,3.94,2,3.95,4.66a4.82,4.82,0,0,1-4.73,4.71A4.36,4.36,0,0,1,754.82,928.09Z" transform="translate(-429.79 -42.71)"/><path class="cls-3" d="M777.21,916.09a3.84,3.84,0,0,1-3.83,4,3.49,3.49,0,0,1-3.82-3.6,4.52,4.52,0,0,1,4-4.39A3.86,3.86,0,0,1,777.21,916.09Z" transform="translate(-429.79 -42.71)"/><path class="cls-1" d="M766.84,850.07a4.44,4.44,0,0,1-4.3,4.66,4.11,4.11,0,0,1-4.21-4.06,5,5,0,0,1,4.55-4.94C764.79,845.63,766.78,847.8,766.84,850.07Z" transform="translate(-429.79 -42.71)"/><rect class="cls-5" y="926.56" width="1049" height="6.86" rx="2.07"/><circle class="cls-6" cx="522.02" cy="442.6" r="373.11"/><rect class="cls-7" x="6.62" y="311.06" width="239.91" height="56.26"/><rect class="cls-7" x="6.62" y="385.52" width="239.91" height="56.26"/><path class="cls-7" d="M948.79,800.71" transform="translate(-429.79 -42.71)"/><path class="cls-1" d="M520.45,184.19c1.11-2.34,2.21-4.46,3.12-6.66a4.8,4.8,0,0,0,.07-2.5c-.12-.72-.66-1.37-.82-2.09-1-4.87-3.92-7.84-8.89-8.65-1.28-.21-1.66-.92-1.63-2.19.08-3.46.07-6.92,0-10.38,0-1.16.28-1.87,1.49-2.05,5.12-.77,7.66-4,9.16-8.76.76-2.39,1-4.23-.21-6.49-2.36-4.51-2.24-4.57,1.41-8.22,1.6-1.59,3.13-3.27,4.83-4.74a2.43,2.43,0,0,1,2.2-.41c4.41,3.23,8.6,2.55,13.31.35,2.82-1.32,3.75-3.25,4.57-5.77,1.12-3.42,1.18-3.4,4.76-3.4,2.86,0,5.72-.08,8.57.06.66,0,1.76.76,1.85,1.3.9,5.3,4.28,7.88,9.17,9.39,2.15.67,3.81.86,5.86-.2,4.83-2.5,4.88-2.4,8.79,1.51,1.43,1.44,2.82,2.94,4.33,4.29,1,.89,1.31,1.71.48,2.84-3,4.12-2.75,8.14-.44,12.66a8.32,8.32,0,0,0,5.36,4.73c4,1.26,4,1.38,4,5.64,0,2.55,0,5.11,0,7.67,0,1.1-.15,1.91-1.43,2.1-5.2.78-7.79,4.05-9.29,8.92-.72,2.33-1,4.17.27,6.27a50.05,50.05,0,0,1,2.27,4.68c-2.94,2.92-5.88,5.91-8.93,8.79a2.09,2.09,0,0,1-1.91-.07c-4.32-3.05-8.44-2.78-13.11-.4a8.16,8.16,0,0,0-4.48,5.3c-1.3,4-1.37,4-5.46,4-2.63,0-5.26-.05-7.89,0-1.14,0-1.9-.22-2.08-1.46-.78-5.22-4.18-7.59-8.93-9.32-3-1.07-5-.31-7.3.85-3.58,1.77-3.59,1.73-6.44-1.09C524.93,188.52,522.71,186.39,520.45,184.19Zm36.48-6.45A20.79,20.79,0,1,0,536.06,157,20.88,20.88,0,0,0,556.93,177.74Z" transform="translate(-429.79 -42.71)"/><path class="cls-8" d="M744.86,253.53c.5-5.8,3-10.44,7.89-13.57s10.12-3.37,15.57-1.35a21.89,21.89,0,0,1,10.85-13.91,21.18,21.18,0,0,1,12.9-2.46,21.56,21.56,0,0,1,16.13,10.6,22.25,22.25,0,0,1,2.91,9.57c.4,0,.75,0,1.1,0A16.81,16.81,0,1,1,813,276q-34.41,0-68.81,0c-2.7,0-5.34-.06-7.82-1.39a11.47,11.47,0,0,1-5.47-13.34,11.28,11.28,0,0,1,12.45-7.91C743.84,253.44,744.29,253.47,744.86,253.53Z" transform="translate(-429.79 -42.71)"/><path class="cls-9" d="M1044,333.33c1.13-13,6.62-23.35,17.65-30.32s22.6-7.55,34.8-3c3.83-13.88,11.86-24.24,24.23-31.09a47.52,47.52,0,0,1,28.83-5.5,48.24,48.24,0,0,1,36,23.69,49.56,49.56,0,0,1,6.52,21.39c.9,0,1.67,0,2.44,0,23.89-1.72,43.3,19.55,39.46,43.27a37.67,37.67,0,0,1-37.6,31.81q-76.89,0-153.77,0c-6,0-11.94-.12-17.47-3.1-10.5-5.67-15.89-18.62-12.24-29.8,4-12.24,15.49-19.53,27.83-17.68C1041.72,333.12,1042.72,333.2,1044,333.33Z" transform="translate(-429.79 -42.71)"/><rect class="cls-10" x="350.77" y="281.28" width="342.5" height="651.9" rx="4.99"/><rect class="cls-11" x="360.7" y="304.44" width="322.64" height="559.25"/><rect class="cls-12" x="488.1" y="893.47" width="66.18" height="9.93" rx="1.76"/><text class="cls-13" transform="translate(57.09 346.69) scale(1.14 1)">xxxxxxxxx</text><text class="cls-13" transform="translate(57.89 423.04) scale(1.14 1)">*********</text><path class="cls-14" d="M448,395.86v-.76a2.1,2.1,0,0,0,.06-.24l.27-2.2c.14-1.08.28-2.16.43-3.23.17-1.29.26-2.59.53-3.86a5.88,5.88,0,0,1,3.42-4.25,6.56,6.56,0,0,1,2.92-.59h7.83a9.08,9.08,0,0,1,1.8.18,6,6,0,0,1,4.62,4.61c.29,1.4.41,2.84.6,4.27s.37,2.87.53,4.31a7.12,7.12,0,0,1,.12,1.85,2.63,2.63,0,0,1-2.43,2.09c-6.08,0-12.16,0-18.24,0a2.46,2.46,0,0,1-1.64-.64A2.88,2.88,0,0,1,448,395.86Z" transform="translate(-429.79 -42.71)"/><path class="cls-14" d="M459.57,365.42a6.62,6.62,0,1,1-6.61,6.52A6.61,6.61,0,0,1,459.57,365.42Z" transform="translate(-429.79 -42.71)"/><path class="cls-14" d="M458.56,472.83h-7a3.86,3.86,0,0,1-4-4q0-5.94,0-11.88a3.77,3.77,0,0,1,2.13-3.53A.46.46,0,0,0,450,453q0-1.67,0-3.33a8.58,8.58,0,0,1,17.15,0c0,1.1,0,2.2,0,3.29a.44.44,0,0,0,.26.46,3.8,3.8,0,0,1,2.13,3.54q0,5.94,0,11.88a3.86,3.86,0,0,1-4,4h-7ZM463.39,453c0-1.06,0-2.08,0-3.1a7.46,7.46,0,0,0-.13-1.25,4.85,4.85,0,0,0-9.47.07,13.19,13.19,0,0,0-.13,2.09c0,.72,0,1.45,0,2.19Zm-6.09,12.4h0c0,.67,0,1.33,0,2a1.23,1.23,0,1,0,2.45-.05q0-1.92,0-3.84a.59.59,0,0,1,.28-.58,2.41,2.41,0,0,0,1-1.89,2.52,2.52,0,0,0-4.79-1.21,2.48,2.48,0,0,0,.72,3.05.77.77,0,0,1,.33.71C457.29,464.18,457.3,464.79,457.3,465.39Z" transform="translate(-429.79 -42.71)"/><path class="cls-15" d="M522,798H502.56c-6.32,0-11-3.5-11-8.28q0-12.37,0-24.76c0-3.33,2-5.79,5.9-7.37.58-.24.72-.51.72-1,0-2.31,0-4.63,0-6.94.09-10.66,12.58-18.91,26.62-17.59,11.86,1.11,20.75,8.66,20.8,17.67q0,3.43,0,6.87c0,.45.14.71.72.95,3.86,1.59,5.89,4,5.9,7.38q0,12.39,0,24.77c0,4.78-4.65,8.25-11,8.27H522Zm13.35-41.36c0-2.21,0-4.34,0-6.47a10.31,10.31,0,0,0-.36-2.59c-1.28-4.58-6.85-7.9-13.16-7.89s-11.85,3.41-13,8a20.49,20.49,0,0,0-.36,4.36c-.05,1.51,0,3,0,4.57ZM518.5,782.47h0c0,1.39,0,2.77,0,4.16a2.74,2.74,0,0,0,2.53,2.57c2.26.44,4.2-.77,4.22-2.67q0-4,0-8a1.21,1.21,0,0,1,.77-1.21,4.79,4.79,0,0,0,2.8-3.93c.18-2.46-2-4.72-5.19-5.34s-6.55.54-8,2.81-.61,4.89,2,6.37a1.48,1.48,0,0,1,.92,1.48C518.47,780,518.5,781.21,518.5,782.47Z" transform="translate(-429.79 -42.71)"/><path class="cls-1" d="M1304.47,766.86c1.23-2.62,2.45-5,3.44-7.45a5.4,5.4,0,0,0,.09-2.8c-.13-.8-.74-1.52-.91-2.33-1.15-5.45-4.33-8.77-9.83-9.68-1.41-.23-1.83-1-1.8-2.45.1-3.87.08-7.74,0-11.61,0-1.3.32-2.09,1.66-2.3,5.65-.85,8.46-4.46,10.12-9.79.83-2.68,1.06-4.73-.24-7.26-2.6-5.05-2.48-5.11,1.56-9.19,1.77-1.79,3.46-3.66,5.34-5.31a2.65,2.65,0,0,1,2.43-.45c4.87,3.61,9.51,2.85,14.71.39,3.12-1.48,4.14-3.64,5-6.46,1.23-3.82,1.31-3.8,5.26-3.8,3.16,0,6.32-.09,9.47.07a2.69,2.69,0,0,1,2.05,1.46c1,5.93,4.72,8.8,10.12,10.49,2.39.75,4.22,1,6.49-.22,5.33-2.8,5.39-2.68,9.71,1.69,1.58,1.61,3.11,3.28,4.78,4.8,1.09,1,1.45,1.91.54,3.17-3.31,4.62-3,9.11-.49,14.17a9.19,9.19,0,0,0,5.91,5.28c4.48,1.42,4.44,1.55,4.44,6.31,0,2.86,0,5.72,0,8.58,0,1.24-.16,2.14-1.57,2.36-5.75.87-8.62,4.52-10.28,10-.79,2.61-1.13,4.66.31,7a53.54,53.54,0,0,1,2.5,5.23c-3.24,3.26-6.5,6.61-9.87,9.83a2.26,2.26,0,0,1-2.11-.08c-4.77-3.4-9.33-3.11-14.49-.44a9.13,9.13,0,0,0-5,5.92c-1.43,4.46-1.51,4.44-6,4.44-2.91,0-5.82,0-8.73,0-1.26,0-2.1-.24-2.3-1.63-.86-5.84-4.61-8.48-9.86-10.42-3.26-1.2-5.48-.34-8.07,1-4,2-4,1.93-7.12-1.22C1309.42,771.7,1307,769.32,1304.47,766.86Zm40.31-7.21a23.26,23.26,0,1,0-23.06-23.16A23.23,23.23,0,0,0,1344.78,759.65Z" transform="translate(-429.79 -42.71)"/><path class="cls-1" d="M1260.38,87.39A24.8,24.8,0,0,0,1237,103.93h-114v24.82h6.62v-9.93h8.27v9.93h8.28v-9.93h5v9.93h8.27v-9.93h77a24.81,24.81,0,1,0,23.9-31.43Zm10.76,34.74a7.45,7.45,0,1,1,7.44-7.44A7.44,7.44,0,0,1,1271.14,122.13Z" transform="translate(-429.79 -42.71)"/><circle class="cls-1" cx="539.39" cy="18.2" r="18.2"/><polygon class="cls-14" points="526.15 19.86 530.29 15.72 536.08 21.51 549.32 8.27 552.63 11.58 536.08 28.13 526.15 19.86"/><circle class="cls-1" cx="72.8" cy="261.42" r="18.2"/><polygon class="cls-14" points="59.56 263.08 63.7 258.94 69.49 264.73 82.73 251.5 86.04 254.8 69.49 271.35 59.56 263.08"/><circle class="cls-1" cx="938.14" cy="441.77" r="18.2"/><polygon class="cls-14" points="924.91 443.43 929.04 439.29 934.83 445.08 948.07 431.84 951.38 435.15 934.83 451.7 924.91 443.43"/><rect class="cls-16" x="400.41" y="731.32" width="225.02" height="31.44"/><rect class="cls-17" x="400.41" y="645.28" width="225.02" height="31.44"/><rect class="cls-17" x="400.41" y="579.1" width="225.02" height="31.44"/><text class="cls-18" transform="translate(428.46 670.85) scale(1.14 1)">*********</text><text class="cls-18" transform="translate(458.04 603.63) scale(1.14 1)">******</text><circle class="cls-19" cx="522.02" cy="440.94" r="86.04"/><path class="cls-20" d="M909.61,533v-2.7a5.09,5.09,0,0,0,.22-.83c.33-2.6.63-5.2,1-7.8q.74-5.74,1.51-11.47c.6-4.56.94-9.18,1.88-13.67,1.46-7,5.69-12,12.12-15.05a23.41,23.41,0,0,1,10.35-2.09c9.25,0,18.5,0,27.75,0a30.06,30.06,0,0,1,6.35.62,21.31,21.31,0,0,1,16.38,16.34c1,5,1.45,10.07,2.11,15.11s1.33,10.18,1.9,15.27c.25,2.18.74,4.31.42,6.58-.56,4-4.9,7.42-8.61,7.4-21.55-.11-43.09-.07-64.63,0a8.64,8.64,0,0,1-5.79-2.29A10.11,10.11,0,0,1,909.61,533Z" transform="translate(-429.79 -42.71)"/><path class="cls-20" d="M950.65,425.16a23.45,23.45,0,1,1-23.43,23.1A23.44,23.44,0,0,1,950.65,425.16Z" transform="translate(-429.79 -42.71)"/></svg>