<svg id="Capa_1" data-name="Capa 1" xmlns="http://www.w3.org/2000/svg" viewBox="0 0 386.47 386.56"><defs><style>.cls-1{fill:#fff;}</style></defs><title>logo-facebook</title><path class="cls-1" d="M538.82,540.07C537.94,439.35,618.08,350.84,724.38,347c108.52-3.93,197.9,80,200.82,187.8C928.08,641.22,845.82,726.68,745,733,627.4,740.39,537.41,645.63,538.82,540.07ZM750.55,664.66v-125h34.81c1.21-14,2.35-27.37,3.56-41.45H751c0-10.21-.08-19.74,0-29.26.07-5,2.85-7.84,7.85-8.13,4.19-.24,8.4-.22,12.6-.25,5.65,0,11.31,0,17.07,0v-44c-17.34.7-34.25.39-50.89,2.32-16.17,1.88-29,10.3-33.95,26.88-2,6.69-2.46,14-2.76,21-.45,10.33-.12,20.7-.12,31.63H675.36v42.07H701V664.66Z" transform="translate(-538.8 -346.85)"/></svg>