<svg id="Capa_1" data-name="Capa 1" xmlns="http://www.w3.org/2000/svg" viewBox="0 0 226.25 226.17"><defs><style>.cls-1{fill:#fff;}</style></defs><title>logo-instagram</title><path class="cls-1" d="M1396.89,478.67h48.3c32.37,0,57.76,21,63.75,52.88a67.93,67.93,0,0,1,.92,12.36q.11,48.17,0,96.33c0,32.31-21.55,58-53.34,63.68a53.29,53.29,0,0,1-9.27.77c-33.71,0-67.43.26-101.13-.05a62.76,62.76,0,0,1-62.2-61.89q-.59-51.56,0-103.11c.39-32.7,28.44-60.37,61.21-60.88,17.23-.27,34.46,0,51.7,0Zm0,208c16.1,0,32.21,0,48.31,0a53.34,53.34,0,0,0,10.1-.87c21.63-4.34,36.49-22.65,36.53-45q.07-48.72,0-97.45a50.52,50.52,0,0,0-.83-9.83c-4.36-21.73-22.58-36.61-44.9-36.65q-48.87-.09-97.74,0a50.37,50.37,0,0,0-9.82.86C1317.05,502,1302.11,520,1302,541.83c-.17,33.24-.07,66.48,0,99.72a44.39,44.39,0,0,0,.89,8.68c4.39,21.43,22.4,36.18,44.56,36.37C1363.89,686.75,1380.37,686.63,1396.85,686.64Z" transform="translate(-1283.66 -478.63)"/><path class="cls-1" d="M1342.61,591.33c0-29.75,24.57-53.94,54.62-53.89,29.61.06,54,24.66,53.9,54.34a54.26,54.26,0,1,1-108.52-.45Zm18.1.15a36.16,36.16,0,0,0,72.32.58c.1-20-16-36.4-35.73-36.52A36.24,36.24,0,0,0,1360.71,591.48Z" transform="translate(-1283.66 -478.63)"/><path class="cls-1" d="M1455.81,519.38a13.55,13.55,0,1,1-13.74,13.52A13.52,13.52,0,0,1,1455.81,519.38Z" transform="translate(-1283.66 -478.63)"/></svg>