<svg id="Capa_1" data-name="Capa 1" xmlns="http://www.w3.org/2000/svg" viewBox="0 0 466.49 382.85"><defs><style>.cls-1{fill:#fff;}</style></defs><title>logo-twiter</title><path class="cls-1" d="M557.44,375.14c-20.62-17.35-31.63-39.72-35.51-65.63-2.24-15,.38-29.76,5.59-44,1.6-4.37,2.8-8.92,5.51-12.88,2.15-3.12,4-3.38,6.49-.47,14.78,17.49,31.73,32.66,50,46.39,15.22,11.46,32,20.37,49.29,28.19,22.08,10,45.45,15.72,69.13,20.22,5.83,1.11,11.87,1.18,17.82,1.65,4.46.36,6.19-1.64,5.58-6.15-3.58-26.35,2.14-50.91,17.87-72,16.29-21.83,38.55-35.62,66.22-38.14,20.62-1.88,41-.25,59.48,10.81,7.14,4.27,14,8.84,19.91,14.79,3.13,3.17,6.5,3.63,11,2.2,16.27-5.13,32.53-10.11,47.35-18.87,1.43-.85,3.49-2.38,5.28-.62s.58,3.51-.16,5.32a98.49,98.49,0,0,1-25.54,37c-2,1.8-4.43,3.25-5.61,6,4.21,2,7.51-.9,11.1-1.67,9.14-2,18.33-3.83,26.55-8.67,2.06-1.21,4.49-2.46,6.4-.18,2.07,2.49-.32,4.24-1.76,6-12.21,15.13-25,29.66-40.86,41.21-2.71,2-3.36,4.74-3.35,7.89,0,7.05.18,14.1-.05,21.14-.6,18.79-4.47,37-9,55.23a266.39,266.39,0,0,1-15.43,43.87,281.93,281.93,0,0,1-57,83.36,249.72,249.72,0,0,1-71.4,50.87c-45.93,21.89-94.63,29.26-145,25.54-30.79-2.27-60.26-10.37-88.57-22.93-10.36-4.6-20-10.45-30-15.54-1.62-.83-3.94-1.68-3-4.16.85-2.25,3.17-1.89,5-1.7,32.42,3.42,63.3-2.68,92.92-15.56,11.12-4.84,21.93-10.5,31.6-18,1.1-.85,3.23-1.2,2.74-3.07-.52-2-2.65-1.71-4.3-2-31.22-4.85-54.78-21.11-71.06-48a93.13,93.13,0,0,1-6.34-13.25c-2-5-.55-6.8,4.83-6,7.67,1.11,15.34.57,23,.47,1.6,0,3.83.11,3.9-2.27,0-1.86-1.91-2-3.27-2.49-28-10.44-47.33-29.81-58.07-57.54-3.69-9.52-6-19.55-5.27-30,.4-5.52,1.93-6.57,6.7-3.88A58.47,58.47,0,0,0,557.44,375.14Z" transform="translate(-505.51 -231.69)"/></svg>