<svg id="Capa_1" data-name="Capa 1" xmlns="http://www.w3.org/2000/svg" viewBox="0 0 395.72 401.81"><defs><style>.cls-1{fill:#fff;}</style></defs><title>logo-telegram</title><path class="cls-1" d="M853.25,679.63c-263.62-1.59-262.5-400.92.21-401.81C1117.77,282.45,1117.86,675.12,853.25,679.63Zm-2.51-135.74C870.51,558,889.87,572.78,909.56,587c6.88,5.2,17.8,6.77,21.37-3,5.18-16,7-33,10.8-49.42,9.27-50.13,22.08-99.88,29.32-150.28.12-8.5-8.65-11-15.48-7.87q-51.68,19.5-103.34,39L723.61,464.14c-10.32,3.73-11.4,16,.27,19,17.8,5.55,35.61,11.08,53.38,16.75a5.49,5.49,0,0,1,3.11,3c7.7,22.72,14.66,45.71,22.75,68.29C811.39,594.56,841.68,551.08,850.74,543.89Z" transform="translate(-655.98 -277.82)"/><path class="cls-1" d="M811.3,563.45c-7.63-21.19-13.87-42.53-21.14-63.81-.82-2.46-.43-3.65,1.82-5.06q62.55-39,125-78.22c2.58-1.45,6.13-4.63,8.94-2.42,1,1.92-.26,4.61-2.14,5.84C889,453.23,848.49,483,816.69,518.46,814.7,533.56,813.54,548.33,811.3,563.45Z" transform="translate(-655.98 -277.82)"/></svg>